{"title":"Bombay Velvet (2015) SAP x264 HDTV RIP - AAC 2.0 - Team Telly Ex","uid":12040903,"size":1066533314,"categoryP":"video","categoryS":"movies","magnet":"?xt=urn:btih:d274d85ac2efbcda333a4b88af559da86869188b&amp;dn=Bombay+Velvet+%282015%29+SAP+x264+HDTV+RIP+-+AAC+2.0+-+Team+Telly+Ex&amp;tr=udp%3A%2F%2Ftracker.openbittorrent.com%3A80&amp;tr=udp%3A%2F%2Fopen.demonii.com%3A1337&amp;tr=udp%3A%2F%2Ftracker.coppersurfer.tk%3A6969&amp;tr=udp%3A%2F%2Fexodus.desync.com%3A6969","seeders":1,"leechers":0,"uploader":"SS132203","files":2,"time":1434785328,"description":"Bombay Velvet (2015) SAP x264 HDTV RIP - AAC 2.0 - Team Telly Exclusive\n &lt;a href=&quot;\nhttp://imgsparrow.co/image/hT&quot; rel=&quot;nofollow&quot; target=&quot;_NEW&quot;&gt;\nhttp://imgsparrow.co/image/hT&lt;/a&gt;\n &lt;a href=&quot;\nhttp://imgsparrow.co/image/4H&quot; rel=&quot;nofollow&quot; target=&quot;_NEW&quot;&gt;\nhttp://imgsparrow.co/image/4H&lt;/a&gt;\n\nInfo : - \n\nAll Credit Goes To Team Telly (Thank Them Not Me)\nExclusive First On Net\n\nFormat : MPEG-4\nFormat profile : Base Media\nCodec ID : isom\nFile size : 1 017 MiB\nDuration : 2h 24mn\nOverall bit rate mode : Variable\nOverall bit rate : 987 Kbps\n\nVideo\nID : 1\nFormat : AVC\nFormat/Info : Advanced Video Codec\nFormat profile : &lt;a class=&quot;__cf_email__&quot; href=&quot;/cdn-cgi/l/email-protection&quot; data-cfemail=&quot;4e032f27200e027d607f&quot;&gt;[email&amp;#160;protected]&lt;/a&gt;&lt;script data-cfhash='f9e31' type=&quot;text/javascript&quot;&gt;\n/* &lt;![CDATA[ */!function(){try{var t=&quot;currentScript&quot;in document?document.currentScript:function(){for(var t=document.getElementsByTagName(&quot;script&quot;),e=t.length;e--;)if(t[e].getAttribute(&quot;data-cfhash&quot;))return t[e]}();if(t&amp;&amp;t.previousSibling){var e,r,n,i,c=t.previousSibling,a=c.getAttribute(&quot;data-cfemail&quot;);if(a){for(e=&quot;&quot;,r=parseInt(a.substr(0,2),16),n=2;a.length-n;n+=2)i=parseInt(a.substr(n,2),16)^r,e+=String.fromCharCode(i);e=document.createTextNode(e),c.parentNode.replaceChild(e,c)}t.parentNode.removeChild(t);}}catch(u){}}()/* ]]&gt; */&lt;/script&gt;\nFormat settings, CABAC : Yes\nFormat settings, ReFrames : 3 frames\nCodec ID : avc1\nCodec ID/Info : Advanced Video Coding\nDuration : 2h 24mn\nBit rate : 861 Kbps\nMaximum bit rate : 7 407 Kbps\nWidth : 720 pixels\nHeight : 288 pixels\nDisplay aspect ratio : 2.500\nFrame rate mode : Constant\nFrame rate : 25.000 fps\nColor space : YUV\nChroma subsampling : 4:2:0\nBit depth : 8 bits\nScan type : Progressive\nBits/(Pixel*Frame) : 0.166\nStream size : 879 MiB (86%)\n\nAudio\nID : 2\nFormat : AAC\nFormat/Info : Advanced Audio Codec\nFormat profile : LC\nCodec ID : 40\nDuration : 2h 24mn\nBit rate mode : Variable\nBit rate : 132 Kbps\nMaximum bit rate : 142 Kbps\nChannel(s) : 2 channels\nChannel positions : Front: L R\nSampling rate : 44.1 KHz\nCompression mode : Lossy\nStream size : 134 MiB (13%)\n\nScreens : - \n &lt;a href=&quot;\nhttp://imgsparrow.co/image/Z0&quot; rel=&quot;nofollow&quot; target=&quot;_NEW&quot;&gt;\nhttp://imgsparrow.co/image/Z0&lt;/a&gt; &lt;a href=&quot;\nhttp://imgsparrow.co/image/ZB&quot; rel=&quot;nofollow&quot; target=&quot;_NEW&quot;&gt;\nhttp://imgsparrow.co/image/ZB&lt;/a&gt; &lt;a href=&quot;\nhttp://imgsparrow.co/image/ZK&quot; rel=&quot;nofollow&quot; target=&quot;_NEW&quot;&gt;\nhttp://imgsparrow.co/image/ZK&lt;/a&gt; &lt;a href=&quot;\nhttp://imgsparrow.co/image/Z2&quot; rel=&quot;nofollow&quot; target=&quot;_NEW&quot;&gt;\nhttp://imgsparrow.co/image/Z2&lt;/a&gt; &lt;a href=&quot;\nhttp://imgsparrow.co/image/Z3&quot; rel=&quot;nofollow&quot; target=&quot;_NEW&quot;&gt;\nhttp://imgsparrow.co/image/Z3&lt;/a&gt; &lt;a href=&quot;\nhttp://imgsparrow.co/image/Zi&quot; rel=&quot;nofollow&quot; target=&quot;_NEW&quot;&gt;\nhttp://imgsparrow.co/image/Zi&lt;/a&gt; &lt;a href=&quot;\nhttp://imgsparrow.co/image/ZV&quot; rel=&quot;nofollow&quot; target=&quot;_NEW&quot;&gt;\nhttp://imgsparrow.co/image/ZV&lt;/a&gt; &lt;a href=&quot;\nhttp://imgsparrow.co/image/Zl&quot; rel=&quot;nofollow&quot; target=&quot;_NEW&quot;&gt;\nhttp://imgsparrow.co/image/Zl&lt;/a&gt; &lt;a href=&quot;\nhttp://imgsparrow.co/image/Zs&quot; rel=&quot;nofollow&quot; target=&quot;_NEW&quot;&gt;\nhttp://imgsparrow.co/image/Zs&lt;/a&gt; &lt;a href=&quot;\nhttp://imgsparrow.co/image/ZS&quot; rel=&quot;nofollow&quot; target=&quot;_NEW&quot;&gt;\nhttp://imgsparrow.co/image/ZS&lt;/a&gt;\n &lt;a href=&quot;\nhttp://imgsparrow.co/image/N2&quot; rel=&quot;nofollow&quot; target=&quot;_NEW&quot;&gt;\nhttp://imgsparrow.co/image/N2&lt;/a&gt;","torrent":{"xt":"urn:btih:d274d85ac2efbcda333a4b88af559da86869188b","amp;dn":"Bombay+Velvet+%282015%29+SAP+x264+HDTV+RIP+-+AAC+2.0+-+Team+Telly+Ex","amp;tr":["udp%3A%2F%2Ftracker.openbittorrent.com%3A80","udp%3A%2F%2Fopen.demonii.com%3A1337","udp%3A%2F%2Ftracker.coppersurfer.tk%3A6969","udp%3A%2F%2Fexodus.desync.com%3A6969"],"infoHash":"d274d85ac2efbcda333a4b88af559da86869188b","infoHashBuffer":{"type":"Buffer","data":[210,116,216,90,194,239,188,218,51,58,75,136,175,85,157,168,104,105,24,139]},"announce":[],"urlList":[]}}